<svg xmlns="http://www.w3.org/2000/svg" fill="none" viewBox="0 0 394 80"><path fill="#000" d="M262 0h68.5v12.7h-27.2v66.6h-13.6V12.7H262V0ZM149 0v12.7H94v20.4h44.3v12.6H94v21h55v12.6H80.5V0h68.7zm34.3 0h-17.8l63.8 79.4h17.9l-32-39.7 32-39.6h-17.9l-23 28.6-23-28.6zm18.3 56.7-9-11-27.1 33.7h17.8l18.3-22.7z"/><path fill="#000" d="M81 79.3 17 0H0v79.3h13.6V17l50.2 62.3H81Zm252.6-.4c-1 0-1.8-.4-2.5-1s-1.1-1.6-1.1-2.6.3-1.8 1-2.5 1.6-1 2.6-1 1.8.3 2.5 1a3.4 3.4 0 0 1 .6 4.3 3.7 3.7 0 0 1-3 1.8zm23.2-33.5h6v23.3c0 2.1-.4 4-1.3 5.5a9.1 9.1 0 0 1-3.8 3.5c-1.6.8-3.5 1.3-5.7 1.3-2.2 0-4.1-.5-5.7-1.3a9.1 9.1 0 0 1-3.8-3.5c-.9-1.5-1.3-3.4-1.3-5.5V45.5h6v23.3c0 .8.2 1.4.7 2 .4.5 1 .9 1.6.9.7 0 1.2-.4 1.7-.9.4-.6.6-1.2.6-2V45.5zm23.5 0h5.8L389.4 79h-6.1l-2.2-7.4h-20.3L358.6 79h-6.1l19.3-33.5zm-5.6 19.5h13.9l-6.9-23.3-7 23.3zM334.1 59c0-4.4 3.5-8.1 8.1-8.1 4.6 0 8.1 3.6 8.1 8.1 0 4.4-3.5 8-8.1 8-4.6 0-8.1-3.6-8.1-8z"/></svg>
